<?xml version="1.0" encoding="utf-8"?>
<!-- Generator: Adobe Illustrator 19.0.0, SVG Export Plug-In . SVG Version: 6.00 Build 0)  -->
<svg version="1.1" id="Layer_1" xmlns="http://www.w3.org/2000/svg" xmlns:xlink="http://www.w3.org/1999/xlink" x="0px" y="0px"
	 viewBox="0 0 236 93.1" style="enable-background:new 0 0 236 93.1;" xml:space="preserve">
<style type="text/css">
	.st0{fill:#1EB5C3;}
	.st1{fill:#44484D;}
</style>
<g id="XMLID_63_">
	<path id="XMLID_64_" class="st0" d="M125.1,44.1c0,0,0.1,0,0.2,0c1.8-0.3,3.4-1,4.7-2.1c1.5-1.2,2.2-2.7,2.2-4.4
		c0-0.9-0.3-1.9-0.9-2.8c-0.1-0.1-0.6-0.8-1.7-2.1c-0.6-0.8-0.9-1.4-0.9-1.9c0-0.6,0.3-1,0.8-1.4c0.5-0.3,1-0.4,1.6-0.4
		c0.1,0,0.2,0,0.4,0c0.2,0,0.3,0,0.3,0c0.2,0,0.2-0.1,0.2-0.2c0,0,0-0.1,0-0.1c-0.8-1.6-1.3-2.8-1.5-3.4c-0.1-0.2-0.2-0.3-0.3-0.3
		c-0.1,0-0.1,0-0.2,0c-1.7,0.3-3.2,0.8-4.3,1.7c-1.4,1-2.2,2.3-2.2,3.9c0,1.1,0.3,2.1,0.9,2.9c0.1,0.1,0.6,0.8,1.6,1.9
		c0.6,0.7,0.9,1.3,0.9,1.9c0,0.9-0.4,1.5-1.3,2c-0.4,0.2-1.2,0.4-2.5,0.7c-0.1,0-0.2,0.1-0.2,0.2c0,0.3,0.3,1,1,2.2
		C124.5,43.5,124.9,44.1,125.1,44.1z"/>
	<path id="XMLID_65_" class="st0" d="M149.3,25.5c-0.5,0-1.3,0-2.3,0.1c-1,0-1.8,0.1-2.3,0.1c-0.2,0-0.3,0.1-0.3,0.4
		c0,1.2,0,3.1,0.1,5.6s0.1,4.3,0.1,5.6c0,1.7-0.9,2.5-2.6,2.5c-1.2,0-2-0.3-2.4-1c-0.3-0.5-0.4-1.4-0.4-2.7c0-1.1,0-2.8,0.1-5.1
		c0.1-2.2,0.1-3.9,0.1-5.1c0-0.2-0.1-0.3-0.3-0.3c-0.5,0-1.3,0-2.4-0.1c-1.1,0-1.8-0.1-2.4-0.1c-0.2,0-0.3,0.1-0.3,0.3
		c0,1,0,2.5,0.1,4.4s0.1,3.5,0.1,4.4c0,0.3,0,0.9,0,1.5c0,0.7,0,1.2,0,1.6c0,1.5,0.1,2.6,0.3,3.1c0.4,1.2,1.4,2,2.9,2.4
		c0.9,0.3,2.3,0.4,4,0.4c3.8,0,6.2-0.7,7.1-2.2c0.5-0.8,0.8-2.3,0.8-4.4c0-0.3,0-0.7,0-1.2c0-0.5,0-1,0-1.2c0-1,0-2.5,0.1-4.4
		s0.1-3.5,0.1-4.4C149.7,25.6,149.6,25.5,149.3,25.5z"/>
	<path id="XMLID_68_" class="st0" d="M165.7,37.4c1.1-1.3,1.6-2.9,1.6-5c0-2-0.6-3.6-1.9-4.9c-1.2-1.2-2.9-1.8-4.9-1.9
		c-1.2,0-2.5-0.1-3.8-0.1c-2.3,0-3.7,0-4.4,0.1c-0.3,0-0.4,0.1-0.4,0.3l0,0.2c0.2,2.9,0.3,5.8,0.3,8.4c0,0.9,0,2.4,0,4.3
		s0,3.3,0,4.3c0,0.2,0.1,0.4,0.4,0.4c0.5,0,1.3,0,2.3,0c1,0,1.8,0,2.3,0c0.2,0,0.3-0.1,0.3-0.3c0-0.4,0-1-0.1-1.7s-0.1-1.4-0.1-1.8
		c0-0.3,0.2-0.5,0.5-0.5c0.3,0,0.9,0,1.5,0.1c0.7,0,1.2,0.1,1.5,0.1C162.9,39.4,164.5,38.7,165.7,37.4z M159.5,35.4
		c-1.5,0-2.3-0.1-2.3-0.3c0-0.3,0-0.7,0-1.2c0-0.5,0-0.9,0-1.2c0-1.9,0-2.8,0.1-3c0.1-0.2,0.8-0.2,2.1-0.2c1.9,0,2.9,1,2.9,3
		C162.2,34.4,161.3,35.4,159.5,35.4z"/>
	<path id="XMLID_71_" class="st0" d="M169.3,34.6c0,0.9,0,2.4,0,4.3s0,3.3,0,4.3c0,0.2,0.1,0.4,0.4,0.4c0.5,0,1.3,0,2.3,0
		c1,0,1.8,0,2.3,0c0.2,0,0.3-0.1,0.3-0.3c0-0.4,0-1-0.1-1.7s-0.1-1.4-0.1-1.8c0-0.3,0.2-0.5,0.5-0.5c0.3,0,0.9,0,1.5,0.1
		c0.7,0,1.2,0.1,1.5,0.1c2,0,3.6-0.7,4.8-2c1.1-1.3,1.6-2.9,1.6-5c0-2-0.6-3.6-1.9-4.9c-1.2-1.2-2.9-1.8-4.9-1.9
		c-1.2,0-2.5-0.1-3.8-0.1c-2.3,0-3.7,0-4.4,0.1c-0.3,0-0.4,0.1-0.4,0.3l0,0.2C169.2,29.1,169.3,31.9,169.3,34.6z M174.2,29.8
		c0.1-0.2,0.8-0.2,2.1-0.2c1.9,0,2.9,1,2.9,3c0,1.9-0.9,2.8-2.8,2.8c-1.5,0-2.3-0.1-2.3-0.3c0-0.3,0-0.7,0-1.2c0-0.5,0-0.9,0-1.2
		C174.2,30.9,174.2,29.9,174.2,29.8z"/>
	<path id="XMLID_74_" class="st0" d="M201.3,27.8c-1.7-1.8-3.9-2.8-6.5-2.8c-2.6,0-4.8,0.9-6.6,2.8c-1.7,1.8-2.6,4-2.6,6.7
		c0,2.6,0.9,4.9,2.6,6.7c1.7,1.8,3.9,2.8,6.6,2.8c2.7,0,4.8-0.9,6.6-2.7c1.7-1.8,2.5-4,2.5-6.7C203.9,31.9,203,29.6,201.3,27.8z
		 M197.9,37.7c-0.8,1-1.9,1.4-3.1,1.4c-1.3,0-2.3-0.5-3.1-1.4c-0.8-0.9-1.1-2-1.1-3.3c0-1.2,0.4-2.3,1.2-3.2c0.8-1,1.9-1.5,3.1-1.5
		c1.3,0,2.3,0.5,3.1,1.4c0.8,0.9,1.2,2,1.2,3.3C199.1,35.7,198.7,36.8,197.9,37.7z"/>
	<path id="XMLID_77_" class="st0" d="M205.8,43.1c0,0.2,0.1,0.3,0.4,0.4s1,0.1,2.2,0.1c1.1,0,1.8,0,2.4-0.1c0.1,0,0.2,0,0.4,0
		c0.1,0,0.1-0.1,0.1-0.3c0-0.6-0.1-1.4-0.2-2.6c-0.1-1.2-0.2-2-0.2-2.6c0-0.4,0.1-0.7,0.2-0.7c0.9,0,1.4,0,1.4,0
		c0.5,0,0.9,0.2,1,0.5c0.7,1.7,1.2,2.9,1.6,3.8c0.2,0.7,0.4,1.2,0.6,1.5c0.1,0.1,0.1,0.2,0.2,0.3c0,0,0.1,0,0.3,0.1
		c0.4,0.1,1.2,0.1,2.3,0.1c1.3,0,2.1,0,2.4-0.1c0.2,0,0.3-0.1,0.3-0.1c0-0.2-0.5-1.4-1.6-3.6c-1-2.1-1.6-3.2-1.6-3.2
		c0-0.1,0.1-0.2,0.3-0.4c1-0.7,1.6-1.4,2-2.2s0.5-1.7,0.5-3c0-1.9-0.7-3.3-2.1-4.3c-1.2-0.9-2.8-1.3-4.8-1.3c-0.9,0-2.2,0-3.8,0.1
		c-2.3,0.1-3.6,0.1-3.9,0.2c-0.3,0.1-0.4,0.1-0.4,0.3l0,0.2c0.2,2,0.2,4.8,0.2,8.4c0,0.9,0,2.4-0.1,4.3
		C205.9,40.7,205.8,42.1,205.8,43.1z M210.9,29.6c0.1-0.2,0.5-0.4,1.3-0.4c1.1,0,2,0.2,2.5,0.5c0.7,0.4,1,1.1,1,2.2
		c0,1.5-0.9,2.2-2.8,2.2c-0.6,0-1.1,0-1.6-0.1c-0.3,0-0.4-0.1-0.4-0.1c0-0.2,0-0.5,0-0.9c0-0.4,0-0.7,0-0.9
		C210.8,30.7,210.8,29.9,210.9,29.6z"/>
	<path id="XMLID_78_" class="st0" d="M234.9,28.5c-0.1-0.4-0.1-0.7-0.1-0.9c0-0.2,0-0.5,0-1c0-0.4,0-0.7,0-1c0-0.1,0-0.2-0.1-0.2
		c0,0-0.1,0-0.3,0c0,0-0.6,0-1.7,0.1c-2.1,0.2-3.5,0.2-4.2,0.2c-2.7,0-4.7-0.1-6.1-0.3c-0.1,0-0.2,0-0.2,0c-0.1,0-0.2,0.3-0.3,1
		c0,0.4-0.1,0.8-0.1,1.2c0,0.1-0.1,0.5-0.2,1.1c-0.1,0.5-0.2,0.9-0.2,1c0,0.1,0.1,0.1,0.2,0.1c1,0,2.4-0.1,4.1-0.3
		c0.1,2.3,0.1,3.8,0.1,4.4c0,1,0,2.5-0.1,4.5c-0.1,2-0.1,3.5-0.1,4.5c0,0.2,0.1,0.4,0.4,0.4c0.4,0.1,1.2,0.1,2.3,0.1
		c1,0,1.7,0,2.3-0.1c0.2,0,0.3,0,0.4-0.1c0.1,0,0.1-0.1,0.1-0.3c0-1,0-2.5-0.1-4.5c-0.1-2-0.1-3.5-0.1-4.5c0-0.9,0-2.4,0.1-4.5
		c2.2,0.1,3.5,0.2,3.8,0.2c0.2,0,0.3-0.1,0.3-0.3C234.9,29.2,234.9,28.9,234.9,28.5z"/>
	<polygon id="XMLID_79_" class="st1" points="136.7,57.8 140.4,63.1 122.8,47.8 122.8,76.6 132.6,76.6 132.6,68 129.4,63.2 
		145.5,76.6 145.5,47.8 136.7,47.8 	"/>
	<polygon id="XMLID_80_" class="st1" points="185.8,76.6 185.8,47.8 177,47.8 177,57.8 180.7,63.1 163.1,47.8 163.1,76.6 
		172.9,76.6 172.9,68 169.7,63.2 	"/>
	<rect id="XMLID_81_" x="149.8" y="47.9" class="st1" width="9.3" height="28.7"/>
	<polygon id="XMLID_82_" class="st1" points="202,76.6 211.7,76.6 217.1,66.5 222.5,76.6 232,76.6 217.3,47.9 	"/>
	<path id="XMLID_83_" class="st1" d="M199.5,47.8h-9.2v28.8c0,6.8-6.2,5.9-6.2,5.9v8.6c16.5-0.9,15.4-14.5,15.4-14.5V47.8z"/>
	<path id="XMLID_84_" class="st1" d="M70.6,34.3l0.2,0l8.6-8.7c0,0-17.9-19.8-20.5-24.6c-2.6,4.8-20.5,24.6-20.5,24.6l8.6,8.7
		L20.4,60.8l-7,5.9l12.9,11.7l15.4-14.7l8.6,8.6l8.5-8.5l8.5,8.5l8.5-8.5l15.3,14.6l0,0l0,0l12.9-11.7l-7-5.9L70.6,34.3z"/>
	
		<rect id="XMLID_85_" x="37.3" y="76.1" transform="matrix(-0.7146 -0.6995 0.6995 -0.7146 16.7047 168.2911)" class="st0" width="10.8" height="9.2"/>
	
		<rect id="XMLID_86_" x="70.5" y="75.3" transform="matrix(-0.6995 -0.7146 0.7146 -0.6995 69.9474 190.8898)" class="st0" width="9.2" height="10.8"/>
	<path id="XMLID_87_" class="st0" d="M37.8,35.7L33,31c-15.2,15.7-31.1,27-31.1,27l6.2,4.4C20.3,53.5,37.8,35.7,37.8,35.7z"/>
	<path id="XMLID_88_" class="st0" d="M84.8,31L80,35.7c0,0,17.5,17.8,29.7,26.7l6.2-4.4C115.9,57.9,100,46.7,84.8,31z"/>
</g>
</svg>
